<?xml version="1.0" standalone="no"?>
<!DOCTYPE svg PUBLIC "-//W3C//DTD SVG 20010904//EN"
 "http://www.w3.org/TR/2001/REC-SVG-20010904/DTD/svg10.dtd">
<svg version="1.0" xmlns="http://www.w3.org/2000/svg"
 width="231.000000pt" height="200.000000pt" viewBox="0 0 231.000000 227.000000"
 preserveAspectRatio="xMidYMid meet">

<g transform="translate(0.000000,227.000000) scale(0.100000,-0.100000)"
fill="#000000" stroke="none">
<path d="M138 1865 l3 -285 279 0 280 0 0 285 0 285 -282 0 -283 0 3 -285z
m482 3 l0 -203 -200 0 -200 0 0 203 0 202 200 0 200 0 0 -202z"/>
<path d="M300 1865 l0 -125 120 0 120 0 0 125 0 125 -120 0 -120 0 0 -125z"/>
<path d="M1430 2110 l0 -40 -40 0 -40 0 0 -40 0 -40 -40 0 -40 0 0 -42 c0 -43
0 -43 -37 -43 -38 0 -38 0 -38 -40 0 -40 0 -40 38 -40 36 0 37 -1 37 -37 0
-35 -2 -37 -37 -40 -36 -3 -38 -5 -41 -40 -3 -37 -4 -38 -43 -38 -39 0 -39 0
-39 -38 0 -21 -2 -41 -5 -43 -2 -3 -20 -3 -40 -1 l-35 4 0 199 0 199 40 0 40
0 0 40 0 40 -80 0 -79 0 -3 -81 -3 -82 -38 -1 -37 -1 0 43 0 42 -45 0 -45 0 0
-245 0 -245 45 0 45 0 0 -80 0 -80 40 0 40 0 0 -40 c0 -40 0 -40 -39 -40 -40
0 -40 0 -43 -42 -3 -41 -3 -41 -43 -41 l-40 0 -3 81 -3 82 -79 0 -80 0 0 40 0
40 40 0 40 0 0 40 0 40 -200 0 -200 0 0 -40 0 -40 -40 0 -40 0 0 40 0 40 -42
0 -43 0 0 -40 0 -40 43 0 42 0 0 -40 0 -40 -42 0 -43 0 0 -285 0 -285 43 0 42
0 0 123 0 122 77 0 78 0 3 78 3 77 39 0 40 0 0 85 0 85 -40 0 -40 0 0 40 0 40
80 0 80 0 0 -40 0 -40 40 0 40 0 0 -40 0 -40 -40 0 -40 0 0 -120 0 -120 -40 0
-40 0 0 -40 0 -40 -40 0 -40 0 0 -45 0 -45 -40 0 -40 0 0 -40 0 -40 80 0 80 0
0 80 0 80 40 0 40 0 0 40 c0 40 0 40 39 40 39 0 40 -1 43 -37 3 -36 5 -38 41
-41 l37 -3 0 45 0 46 -41 0 c-40 0 -40 0 -37 35 2 20 6 35 11 35 4 0 113 0
242 0 l235 0 0 -40 0 -40 79 0 80 0 3 -37 c3 -37 4 -38 41 -38 37 0 37 0 37
-42 l0 -43 -80 0 -80 0 0 45 0 45 -40 0 -40 0 0 -85 0 -85 40 0 40 0 0 -40 0
-40 -160 0 -160 0 0 80 0 80 40 0 40 0 0 -40 0 -40 40 0 40 0 0 40 c0 40 0 40
-40 40 l-39 0 -3 83 -3 82 -37 3 c-37 3 -37 3 -40 -39 -3 -43 -3 -43 -43 -43
-40 -1 -40 -1 -43 -43 l-3 -43 -80 0 -79 0 0 -40 0 -40 80 0 80 0 0 -40 0 -40
45 0 45 0 0 -40 0 -40 -45 0 -45 0 2 -162 3 -163 43 -3 c41 -3 42 -4 42 -37 0
-33 -1 -34 -42 -37 -43 -3 -43 -3 -46 -45 l-3 -43 45 0 46 0 0 39 c0 39 1 40
38 43 36 3 37 4 37 43 0 39 -1 40 -37 43 l-38 3 0 160 0 159 40 0 40 0 0 -126
0 -125 38 3 c35 3 37 5 40 43 3 39 4 40 40 39 36 -1 37 -2 40 -43 l3 -43 39 4
39 3 3 -40 3 -40 78 0 77 0 0 -37 0 -38 -120 0 -120 0 0 -45 0 -45 120 0 120
0 0 40 0 40 85 0 85 0 0 -40 0 -40 323 0 322 0 -3 166 -3 165 -77 -2 -77 -2
-3 42 c-3 42 -3 42 -40 39 -35 -3 -37 -5 -40 -43 -3 -39 -4 -40 -40 -39 l-37
1 -3 82 -3 81 41 0 40 0 0 40 0 40 40 0 40 0 0 -40 c0 -40 0 -40 39 -40 40 0
40 0 43 -42 3 -42 4 -43 40 -46 l36 -3 4 85 3 86 -82 0 -83 0 0 80 0 80 -81 0
-80 0 3 41 3 41 158 -1 157 -2 0 46 0 46 -77 -2 -78 -2 -3 76 -3 77 80 0 80 0
3 85 3 85 -42 0 -43 0 0 40 0 40 -40 0 -40 0 0 40 0 40 -200 0 -200 0 0 -40
c0 -40 0 -40 -40 -40 l-40 0 -2 203 -3 202 -42 3 c-43 3 -43 3 -43 43 l0 41
-37 -4 -38 -3 -3 43 -3 42 85 0 86 0 0 80 0 80 -45 0 -45 0 0 -40z m-482 -409
l3 -121 39 0 40 0 0 -120 0 -120 80 0 80 0 0 -40 0 -40 40 0 40 0 0 -42 c0
-43 0 -43 -37 -43 -37 0 -38 -1 -41 -40 l-3 -40 -39 3 c-37 4 -39 6 -42 40
l-3 37 -78 0 -77 0 0 43 0 42 40 0 40 0 0 40 0 40 -40 0 -40 0 0 80 0 80 -40
0 -40 0 0 163 0 162 37 -1 38 -1 3 -122z m482 80 l0 -37 -40 4 c-38 4 -40 6
-40 36 0 41 2 43 45 38 33 -4 35 -6 35 -41z m-80 -76 c0 -34 -1 -35 -40 -35
-39 0 -40 1 -40 35 0 34 1 35 40 35 39 0 40 -1 40 -35z m80 -120 l0 -85 -120
0 -120 0 0 -40 0 -40 -40 0 -40 0 0 40 0 40 40 0 40 0 0 80 0 80 39 0 c39 0
40 -1 43 -37 3 -36 5 -38 41 -41 l37 -3 0 40 c0 39 1 40 38 44 20 2 38 4 40 5
1 1 2 -36 2 -83z m90 -205 l0 -40 40 0 40 0 0 40 0 40 40 0 40 0 0 -40 0 -40
-40 0 -40 0 0 -40 0 -40 40 0 c40 0 40 0 40 -39 0 -38 -1 -39 -40 -43 l-40 -4
0 43 0 43 -40 0 c-40 0 -40 0 -40 -38 0 -21 -2 -41 -4 -43 -3 -3 -23 -3 -45
-1 -40 4 -41 5 -41 43 l0 39 45 0 45 0 0 40 0 40 -125 0 -125 0 0 40 0 40 125
0 125 0 0 -40z m480 -79 l0 -119 -35 -4 c-20 -2 -38 -2 -40 1 -3 2 -5 40 -5
83 l0 78 -40 0 -40 0 0 -83 0 -83 -40 4 -40 4 0 119 0 119 120 0 120 0 0 -119z
m-1620 -41 l0 -80 -39 0 c-39 0 -40 0 -43 -41 -3 -41 -4 -42 -41 -43 l-37 -1
0 83 0 82 40 0 40 0 0 40 0 40 40 0 40 0 0 -80z m320 -42 l0 -43 -37 1 c-37 1
-38 2 -41 43 l-3 41 40 0 41 0 0 -42z m732 -87 c3 -35 4 -36 43 -37 39 0 40
-1 43 -37 l3 -37 -126 0 -126 0 3 38 c3 36 4 37 41 34 37 -4 37 -4 37 36 0 21
2 41 5 43 2 3 20 3 39 1 32 -4 35 -7 38 -41z m328 4 c0 -34 -1 -35 -40 -35
-39 0 -40 1 -40 35 0 34 1 35 40 35 39 0 40 -1 40 -35z m-80 -81 c0 -33 -1
-34 -40 -34 -40 0 -40 0 -40 38 l0 38 40 -4 c38 -4 40 -6 40 -38z m240 4 l0
-43 -80 3 -80 4 0 33 0 34 78 4 c42 1 78 4 80 5 1 1 2 -17 2 -40z m-320 -83
c0 -34 -1 -35 -40 -35 -39 0 -40 1 -40 35 0 34 1 35 40 35 39 0 40 -1 40 -35z
m160 -45 l0 -80 -80 0 -80 0 0 39 c0 39 1 40 38 43 35 3 37 5 40 41 3 36 4 37
43 37 l39 0 0 -80z m-240 -41 l0 -39 -45 0 -45 0 0 38 c0 21 2 41 4 43 3 3 23
3 45 1 40 -4 41 -5 41 -43z m-170 -159 l0 -40 40 0 40 0 0 -82 0 -83 -37 1
c-37 1 -38 2 -41 43 -3 41 -4 41 -43 41 l-39 0 0 -42 0 -43 -80 0 -80 0 0 43
0 42 40 0 40 0 0 40 0 40 40 0 40 0 0 40 0 40 40 0 40 0 0 -40z m408 -81 l-3
-120 -118 -2 -117 -2 0 123 0 122 120 0 121 0 -3 -121z m162 81 l0 -40 -40 0
-40 0 0 40 0 40 40 0 40 0 0 -40z m-490 -322 l0 -38 -70 0 c-38 0 -73 0 -77 0
-9 -1 -16 47 -10 63 3 8 32 12 81 12 l76 0 0 -37z m328 -1 l3 -37 -40 0 c-41
0 -41 0 -41 38 0 36 1 37 37 36 36 -1 38 -3 41 -37z m322 -119 l0 -83 -77 2
-78 1 -3 42 -3 41 -80 -3 -79 -3 0 37 0 37 158 4 c86 1 158 4 160 5 1 1 2 -35
2 -80z m-400 -1 c0 -41 -2 -76 -4 -78 -2 -2 -38 -3 -80 -1 l-75 4 -3 36 c-3
36 -4 37 -43 38 -39 0 -40 1 -43 37 l-3 37 125 0 126 0 0 -73z"/>
<path d="M1600 650 l0 -40 40 0 40 0 0 40 0 40 -40 0 -40 0 0 -40z"/>
<path d="M1600 1865 l0 -285 280 0 279 0 3 285 3 285 -282 0 -283 0 0 -285z
m480 3 l0 -203 -200 0 -200 0 0 203 0 202 200 0 200 0 0 -202z"/>
<path d="M1760 1865 l0 -125 120 0 120 0 0 125 0 125 -120 0 -120 0 0 -125z"/>
<path d="M2080 810 l0 -40 43 0 42 0 0 40 0 40 -42 0 -43 0 0 -40z"/>
<path d="M135 405 l0 -285 283 0 282 0 0 285 0 285 -282 0 -283 0 0 -285z
m485 3 l0 -203 -200 0 -200 0 0 203 0 202 200 0 200 0 0 -202z"/>
<path d="M300 405 l0 -125 120 0 120 0 0 125 0 125 -120 0 -120 0 0 -125z"/>
</g>
</svg>
